<?xml version="1.0" encoding="UTF-8" standalone="no"?>
<svg
   width="600"
   height="100"
   viewBox="0 0 2400 400"
   version="1.1"
   id="svg1"
   xmlns="http://www.w3.org/2000/svg"
   xmlns:svg="http://www.w3.org/2000/svg">
  <defs
     id="defs1" />
  <path
     d="M 692.93671,40 Q 749.1867,40 794.59339,83.554298 840,126.88293 840,198.42031 840,269.50635 795.27106,314.86601 750.54213,360 689.32231,360 621.3253,360 580.66266,312.38362 540,264.76728 540,198.87165 540,127.55995 585.63253,83.77997 631.49096,40 692.93671,40 Z m -4.29215,16.473903 q -43.82529,0 -70.48191,36.332865 -26.43073,36.107192 -26.43073,105.162202 0,64.54161 24.8494,105.38787 24.8494,40.62057 72.28912,40.62057 46.08437,0 72.74095,-35.65583 26.65668,-35.88152 26.65668,-104.03385 0,-69.055 -25.07528,-108.321583 -24.84947,-39.492244 -74.54823,-39.492244 z m -53.08733,88.913967 h 8.58433 q 0,19.40762 7.90662,27.7574 7.90664,8.3498 29.1416,8.3498 h 18.29816 q 20.10544,0 28.23798,-8.12413 8.13253,-8.34979 8.13253,-27.98307 h 8.58431 v 108.9986 h -8.58431 q 0,-19.18196 -7.90664,-27.53175 -7.90665,-8.34979 -28.91566,-8.34979 h -18.75002 q -20.10541,0 -28.23795,8.34979 -7.90662,8.34979 -7.90662,27.53175 h -8.58433 z"
     id="text18"
     style="font-size:533.333px;font-family:'Times New Roman';-inkscape-font-specification:'Times New Roman, ';white-space:pre;fill:#000000;fill-opacity:1;stroke-width:0.867022"
     aria-label="Θ" />
  <text
     xml:space="preserve"
     style="font-size:370.453px;font-family:'Times New Roman';-inkscape-font-specification:'Times New Roman, Normal';writing-mode:lr-tb;direction:ltr;fill:#000000;fill-opacity:1;stroke-width:4.96143"
     x="857.10803"
     y="291.45126"
     id="text1"
     transform="scale(1.0140883,0.98610743)"><tspan
       id="tspan1"
       style="fill:#000000;fill-opacity:1;stroke-width:4.96143"
       x="857.10803"
       y="291.45126">[[<tspan
   style="font-size:378.593px;fill:#000000;fill-opacity:1;stroke-width:4.96143"
   id="tspan3"> </tspan><tspan
   style="font-size:432.678px;fill:#000000;fill-opacity:1;stroke-width:4.96143"
   id="tspan2">...</tspan><tspan
   id="tspan6"
   style="font-size:378.593px;fill:#000000;fill-opacity:1;stroke-width:4.96143"> </tspan>]]</tspan></text>
</svg>
