<?xml version="1.0" encoding="UTF-8" standalone="no"?>
<svg
   width="2800"
   height="400"
   viewBox="0 0 3111.1112 444.44445"
   version="1.1"
   id="svg1"
   xmlns="http://www.w3.org/2000/svg"
   xmlns:svg="http://www.w3.org/2000/svg">
  <defs
     id="defs1" />
  <g
     id="g27"
     transform="matrix(0.87758572,0,0,0.87777534,24.352511,27.160511)">
    <path
       style="font-size:203.625px;font-family:'Times New Roman';-inkscape-font-specification:'Times New Roman, ';baseline-shift:baseline;stroke-width:1.01812"
       d="m 377.16779,298.70279 h 16.90246 l -10.2409,46.03436 q -2.98279,13.12427 -4.07648,16.10706 3.97705,18.29443 11.53345,18.29443 8.94836,0 9.24664,-12.32886 h 3.57934 q -0.29827,11.53345 -4.27532,18.69214 -3.87763,7.05927 -10.24091,7.05927 -5.26959,0 -7.85468,-4.27533 -2.58508,-4.27533 -5.56787,-17.49903 -10.34033,21.77436 -33.80493,21.77436 -16.00763,0 -25.45312,-12.42829 -9.4455,-12.52771 -9.4455,-35.79345 0,-22.86804 10.34033,-35.59461 10.34033,-12.72656 24.85657,-12.72656 10.24091,0 16.80304,7.25812 6.56213,7.25812 11.63287,23.66345 z m -8.74952,38.9751 q -4.67303,-16.00763 -10.43975,-24.956 -5.76673,-9.04779 -13.82026,-9.04779 -18.195,0 -18.195,42.55445 0,40.36706 17.39959,40.36706 15.1128,0 22.37091,-35.5946 z m 64.42823,95.64807 h -16.40534 q 3.57935,-16.80304 3.57935,-30.42444 V 294.62631 q 0,-16.90246 2.98279,-25.15484 3.08221,-8.25238 11.83172,-14.51624 8.84894,-6.36328 22.07263,-6.36328 15.70935,0 26.34797,8.35181 10.73803,8.25238 10.73803,23.56402 0,17.89673 -17.00189,29.33075 25.3537,11.93115 25.3537,37.48371 0,13.91967 -6.76099,24.95599 -6.66156,10.93689 -15.5105,15.60992 -8.74951,4.67304 -20.97894,4.67304 -13.91968,0 -22.66919,-10.43976 v 18.49329 q 0,19.08984 -3.57934,32.71124 z m 3.57934,-60.15289 q 7.75525,12.82598 21.67493,12.82598 13.42255,0 19.6864,-9.74377 6.26386,-9.8432 6.26386,-23.86231 0,-10.73803 -4.17591,-21.87377 -4.07647,-11.23517 -10.53918,-17.10132 -5.96558,1.49139 -10.73804,1.49139 -10.04205,0 -10.04205,-5.26959 0,-4.77246 8.45123,-4.77246 5.26959,0 13.12427,2.38623 7.05926,-11.93115 7.05926,-25.95026 0,-12.52771 -5.56787,-19.18927 -5.46844,-6.66156 -14.31738,-6.66156 -7.05927,0 -12.13001,3.97705 -4.97131,3.97705 -6.86041,9.54492 -1.8891,5.46845 -1.8891,17.99616 z"
       id="text3"
       transform="scale(1.0262974,0.97437641)"
       aria-label="αβ" />
    <path
       d="m 189.81998,42.222049 q 56.73832,0 102.53914,43.977895 45.80081,43.750036 45.80081,115.983156 0,71.77739 -45.11722,117.57821 -45.11722,45.57294 -106.86856,45.57294 -68.58729,0 -109.602943,-48.07946 -41.015654,-48.07946 -41.015654,-114.61596 0,-72.00526 46.028678,-116.211021 46.256539,-44.20576 108.235749,-44.20576 z m -4.32943,16.634126 q -44.20576,0 -71.0938,36.686224 -26.660171,36.458361 -26.660171,106.184971 0,65.16932 25.065121,106.41283 25.06512,41.01566 72.91672,41.01566 46.48441,0 73.37245,-36.00263 26.88804,-36.2305 26.88804,-105.04565 0,-69.72661 -25.29299,-109.375075 -25.06512,-39.87633 -75.19537,-39.87633 z m -53.54821,89.778705 h 8.65886 q 0,19.59637 7.97527,28.02737 7.97526,8.43099 29.39455,8.43099 h 18.45704 q 20.27996,0 28.48309,-8.20313 8.20313,-8.43099 8.20313,-28.25523 h 8.65887 v 110.05867 h -8.65887 q 0,-19.3685 -7.97526,-27.79949 -7.97527,-8.431 -29.16669,-8.431 h -18.91277 q -20.27996,0 -28.48309,8.431 -7.97527,8.43099 -7.97527,27.79949 h -8.65886 z"
       id="text5"
       style="font-size:466.667px;font-family:'Times New Roman';-inkscape-font-specification:'Times New Roman, ';stroke-width:0.974418"
       aria-label="Θ" />
  </g>
  <path
     d="m 516.28846,178.33305 h 153.57757 v 17.64157 H 516.28846 Z m 0,70.13599 h 153.57757 v 17.64158 H 516.28846 Z"
     id="text9"
     style="font-size:408.327px;font-family:'Times New Roman';-inkscape-font-specification:'Times New Roman, ';stroke-width:0.76796"
     aria-label="=" />
  <g
     id="g24"
     transform="matrix(0.87758619,0,0,0.87777581,55.555581,46.666644)">
    <path
       style="font-size:203.625px;font-family:'Times New Roman';-inkscape-font-specification:'Times New Roman, ';baseline-shift:baseline;stroke-width:1.01812"
       d="m 1793.03,275.89612 h 16.9025 l -10.2409,46.03436 q -2.9828,13.12427 -4.0765,16.10706 3.9771,18.29443 11.5335,18.29443 8.9483,0 9.2466,-12.32886 h 3.5793 q -0.2982,11.53345 -4.2753,18.69214 -3.8776,7.05927 -10.2409,7.05927 -5.2696,0 -7.8547,-4.27533 -2.585,-4.27533 -5.5678,-17.49903 -10.3404,21.77436 -33.805,21.77436 -16.0076,0 -25.4531,-12.42829 -9.4455,-12.52771 -9.4455,-35.79345 0,-22.86805 10.3403,-35.59461 10.3404,-12.72656 24.8566,-12.72656 10.2409,0 16.8031,7.25812 6.5621,7.25811 11.6328,23.66345 z m -8.7495,38.9751 q -4.673,-16.00763 -10.4397,-24.956 -5.7668,-9.04779 -13.8203,-9.04779 -18.195,0 -18.195,42.55444 0,40.36707 17.3996,40.36707 15.1128,0 22.3709,-35.5946 z m 64.4282,95.64807 h -16.4053 q 3.5794,-16.80304 3.5794,-30.42444 V 271.81964 q 0,-16.90246 2.9827,-25.15485 3.0823,-8.25238 11.8318,-14.51623 8.8489,-6.36328 22.0726,-6.36328 15.7093,0 26.348,8.3518 10.738,8.25239 10.738,23.56403 0,17.89673 -17.0019,29.33075 25.3537,11.93115 25.3537,37.4837 0,13.91968 -6.761,24.956 -6.6615,10.93689 -15.5105,15.60992 -8.7495,4.67304 -20.9789,4.67304 -13.9197,0 -22.6692,-10.43976 v 18.49328 q 0,19.08985 -3.5794,32.71125 z m 3.5794,-60.1529 q 7.7552,12.82599 21.6749,12.82599 13.4226,0 19.6864,-9.74377 6.2639,-9.8432 6.2639,-23.86231 0,-10.73803 -4.1759,-21.87378 -4.0765,-11.23516 -10.5392,-17.10131 -5.9656,1.49139 -10.7381,1.49139 -10.042,0 -10.042,-5.26959 0,-4.77246 8.4512,-4.77246 5.2696,0 13.1243,2.38623 7.0593,-11.93116 7.0593,-25.95026 0,-12.52771 -5.5679,-19.18927 -5.4685,-6.66156 -14.3174,-6.66156 -7.0593,0 -12.13,3.97705 -4.9713,3.97705 -6.8604,9.54492 -1.8891,5.46845 -1.8891,17.99616 z"
       id="text10"
       transform="scale(1.0262973,0.97437653)"
       aria-label="αβ" />
    <path
       d="m 1580.093,312.98603 c 96.2421,0 180.4538,-102.25717 180.4538,-188.61723 0,-72.181534 -48.121,-104.405435 -99.6792,-104.405435 -76.9077,0 -174.8684,93.664135 -174.8684,188.617235 0,69.17397 41.2466,96.24205 75.6188,102.68683 -41.6763,36.52042 -45.5431,39.09833 -76.0484,61.01058 l 4.2965,6.44478 c 15.0378,-9.02269 34.3721,-13.31921 50.2693,-13.31921 21.9122,0 66.596,18.90469 103.9758,18.90469 20.1936,0 72.6111,-11.17095 103.1164,-57.14372 l -6.4447,-4.72617 c -17.1861,17.61573 -31.7943,32.65355 -75.1891,32.65355 -26.2088,0 -75.1891,-18.90469 -97.9607,-18.04538 l -10.7413,0.42965 z m -48.9803,-84.64144 c 0,-55.85476 42.9652,-194.202708 128.0363,-194.202708 40.8169,0 56.2844,30.07564 56.2844,69.173968 0,52.41755 -41.2466,195.49167 -128.466,195.49167 -55.8547,0 -55.8547,-60.58093 -55.8547,-70.46293 z"
       id="text12"
       style="font-style:italic;font-size:429.652px;font-family:Times;-inkscape-font-specification:'Times, Italic';stroke-width:0.894623"
       transform="scale(0.99820145,1.0018018)"
       aria-label="Q" />
  </g>
  <path
     d="m 1836.9059,206.8608 h 163.4602 v 30.72213 h -163.4602 z"
     id="text16"
     style="font-size:591.822px;font-family:'Times New Roman';-inkscape-font-specification:'Times New Roman, Normal';stroke-width:1.11306"
     aria-label="-" />
  <g
     id="g26"
     transform="matrix(0.87758619,0,0,0.87777581,1.5557702,46.666644)">
    <path
       d="m 3014.855,149.19931 q -11.3933,-12.76043 -31.6732,-30.53388 -22.3308,-19.596366 -30.0782,-30.761739 -7.7474,-11.393237 -7.7474,-24.837257 0,-20.052097 18.6849,-31.445334 18.6849,-11.621102 48.7631,-11.621102 30.0781,0 52.4089,10.253913 22.5586,10.253914 22.5586,28.255229 0,8.65886 -5.4688,14.355478 -5.4687,5.696619 -12.7604,5.696619 -10.4818,0 -24.6094,-15.722667 -14.3555,-15.950532 -24.3815,-22.330745 -9.7982,-6.608078 -23.0143,-6.608078 -16.862,0 -27.7995,7.519537 -10.7097,7.519536 -10.7097,19.140638 0,10.937508 8.8867,20.507827 8.8868,9.570319 45.8009,34.863301 39.4206,27.11591 55.599,42.38285 16.4062,15.26693 26.6601,37.14195 10.2539,21.87501 10.2539,46.25654 0,42.83857 -30.306,75.6511 -30.0781,32.58465 -70.4102,32.58465 -36.6862,0 -61.9792,-26.20444 -25.293,-26.20445 -25.293,-69.95448 0,-42.15497 27.7995,-70.4102 28.0274,-28.25523 68.8152,-34.17971 z m 10.026,10.48178 q -65.3972,10.70964 -65.3972,89.7787 0,40.78779 16.1784,63.3464 16.4063,22.55861 38.0535,22.55861 22.5586,0 37.1419,-21.64715 14.5834,-21.87501 14.5834,-59.01697 0,-53.77608 -40.56,-95.01959 z"
       id="text17"
       style="font-style:italic;font-size:466.667px;font-family:'Times New Roman';-inkscape-font-specification:'Times New Roman, Italic'"
       aria-label="δ" />
    <path
       style="font-size:203.625px;font-family:'Times New Roman';-inkscape-font-specification:'Times New Roman, ';baseline-shift:baseline;stroke-width:1.01812"
       d="m 3112.6228,275.89612 h 16.9025 l -10.2409,46.03436 q -2.9828,13.12427 -4.0765,16.10706 3.977,18.29443 11.5334,18.29443 8.9484,0 9.2467,-12.32886 h 3.5793 q -0.2983,11.53345 -4.2753,18.69214 -3.8776,7.05927 -10.2409,7.05927 -5.2696,0 -7.8547,-4.27533 -2.5851,-4.27533 -5.5679,-17.49903 -10.3403,21.77436 -33.8049,21.77436 -16.0076,0 -25.4531,-12.42829 -9.4455,-12.52771 -9.4455,-35.79345 0,-22.86805 10.3403,-35.59461 10.3404,-12.72656 24.8566,-12.72656 10.2409,0 16.803,7.25812 6.5622,7.25811 11.6329,23.66345 z m -8.7495,38.9751 q -4.673,-16.00763 -10.4398,-24.956 -5.7667,-9.04779 -13.8202,-9.04779 -18.195,0 -18.195,42.55444 0,40.36707 17.3996,40.36707 15.1128,0 22.3709,-35.5946 z m 64.4282,95.64807 h -16.4053 q 3.5793,-16.80304 3.5793,-30.42444 V 271.81964 q 0,-16.90246 2.9828,-25.15485 3.0822,-8.25238 11.8317,-14.51623 8.849,-6.36328 22.0727,-6.36328 15.7093,0 26.3479,8.3518 10.7381,8.25239 10.7381,23.56403 0,17.89673 -17.0019,29.33075 25.3537,11.93115 25.3537,37.4837 0,13.91968 -6.761,24.956 -6.6616,10.93689 -15.5105,15.60992 -8.7495,4.67304 -20.979,4.67304 -13.9196,0 -22.6691,-10.43976 v 18.49328 q 0,19.08985 -3.5794,32.71125 z m 3.5794,-60.1529 q 7.7552,12.82599 21.6749,12.82599 13.4225,0 19.6864,-9.74377 6.2638,-9.8432 6.2638,-23.86231 0,-10.73803 -4.1759,-21.87378 -4.0764,-11.23516 -10.5391,-17.10131 -5.9656,1.49139 -10.7381,1.49139 -10.042,0 -10.042,-5.26959 0,-4.77246 8.4512,-4.77246 5.2696,0 13.1243,2.38623 7.0592,-11.93116 7.0592,-25.95026 0,-12.52771 -5.5678,-19.18927 -5.4685,-6.66156 -14.3174,-6.66156 -7.0593,0 -12.13,3.97705 -4.9713,3.97705 -6.8604,9.54492 -1.8891,5.46845 -1.8891,17.99616 z"
       id="text18"
       transform="scale(1.0262973,0.97437653)"
       aria-label="αβ" />
  </g>
  <path
     d="m 1156.9417,122.16908 q 11.8914,-27.757769 29.9337,-42.751021 18.2473,-15.195866 45.3108,-15.195866 33.4191,0 51.2567,21.476823 13.5315,16.006304 13.5315,34.241344 0,29.98649 -38.1348,61.99912 25.6284,9.92797 38.75,28.36561 13.1215,18.43767 13.1215,43.35888 0,35.65962 -22.9627,61.79652 -29.934,34.03872 -86.7262,34.03872 -28.0886,0 -38.3399,-6.88878 -10.0462,-6.8888 -10.0462,-14.79066 0,-5.87572 4.7155,-10.33317 4.9206,-4.45744 11.6865,-4.45744 5.1257,0 10.4563,1.62087 3.4854,1.01307 15.7871,7.49664 12.3016,6.28095 17.0171,7.49662 7.5861,2.22872 16.197,2.22872 20.9128,0 36.2897,-16.00631 15.5821,-16.00631 15.5821,-37.88836 0,-16.00632 -7.1761,-31.20217 -5.3307,-11.34624 -11.6865,-17.22199 -8.8161,-8.10445 -24.193,-14.58802 -15.3769,-6.68619 -31.369,-6.68619 h -6.5608 v -6.07833 q 16.1971,-2.02611 32.3941,-11.54885 16.4021,-9.52275 23.783,-22.89512 7.3809,-13.37235 7.3809,-29.37866 0,-20.86899 -13.3266,-33.63352 -13.1217,-12.967128 -32.8041,-12.967128 -31.7791,0 -53.1019,33.633508 z"
     id="text20"
     style="font-size:475.587px;font-family:'Times New Roman';-inkscape-font-specification:'Times New Roman, Normal';stroke-width:0.889073"
     aria-label="3" />
  <g
     id="g28"
     transform="matrix(0.87758619,0,0,0.87777581,55.555581,46.666644)">
    <path
       d="m 760.5877,53.836036 46.07805,-19.555077 h 7.86699 V 167.34539 q 0,13.48626 1.34862,16.63305 1.12386,2.02294 3.59634,3.14679 3.59633,1.79817 17.75691,1.79817 v 7.19267 h -73.05058 v -7.19267 q 14.38535,0 17.98168,-1.57339 2.69725,-1.12386 3.82111,-3.59634 1.12385,-2.47248 1.12385,-16.40828 V 83.281036 q 0,-15.958741 -1.12385,-21.128474 -0.67431,-3.596335 -2.47248,-4.944961 -1.5734,-1.573397 -4.27065,-1.573397 -4.49542,0 -15.05966,4.49542 z M 1015.478,34.280959 805.31712,357.50165 H 785.31251 L 995.47338,34.280959 Z m 50.7982,285.683931 -13.711,34.38996 H 941.52835 v -6.74313 q 55.51843,-43.15603 73.72485,-70.35332 11.2386,-16.63305 11.2386,-32.14225 0,-13.71103 -9.4404,-22.92664 -9.2156,-9.44038 -23.37618,-9.44038 -12.81195,0 -22.4771,6.74313 -9.66516,6.51836 -14.61012,19.77984 h -10.11469 q 3.14679,-21.80278 17.30736,-34.38996 14.38535,-12.58717 37.08723,-12.58717 23.8257,0 38.6606,13.26149 15.0597,13.03671 15.0597,28.99545 0,14.83489 -10.7891,31.91749 -16.8578,26.07343 -66.30739,66.08267 h 42.03219 q 19.3303,0 25.6239,-2.47248 6.5183,-2.69726 11.0138,-10.1147 z"
       id="text13"
       style="font-size:460.331px;font-family:'Times New Roman';-inkscape-font-specification:'Times New Roman, Normal';stroke-width:0.965862"
       transform="scale(0.9794565,1.0209744)"
       aria-label="½" />
    <path
       d="m 1215.5065,392.04392 v 7.95701 q -32.4732,-16.34412 -54.1936,-38.27965 -30.9678,-31.18286 -47.7421,-73.54853 -16.7742,-42.36568 -16.7742,-87.95717 0,-66.6668 32.9033,-121.505624 32.9033,-55.053875 85.8066,-78.70983717814 V 9.0323952 q -26.4516,14.6236858 -43.4409,40.0000808 -16.9893,25.376396 -25.3764,64.301204 -8.3871,38.92481 -8.3871,81.29049 0,46.0216 7.0968,83.65608 5.5914,29.67748 13.5484,47.52698 7.957,18.06455 21.2903,34.62373 13.5485,16.55917 35.2689,31.61296 z"
       id="text21"
       style="font-size:440.431px;font-family:'Times New Roman';-inkscape-font-specification:'Times New Roman, Normal';stroke-width:0.705656"
       aria-label="(" />
  </g>
  <g
     id="g25"
     transform="matrix(0.87758619,0,0,0.87777581,1.5557702,46.666644)">
    <path
       style="font-size:245.115px;font-family:'Times New Roman';-inkscape-font-specification:'Times New Roman, ';baseline-shift:baseline;stroke-width:1.22557"
       d="m 2658.6613,237.72411 h 24.6551 l -47.9937,100.65513 q 1.7953,16.15749 1.7953,28.24568 0,33.6315 -12.567,33.6315 -9.096,0 -9.096,-14.12284 0,-18.4315 13.4047,-46.19843 -2.6331,-17.23465 -7.4205,-41.53072 -4.6677,-24.29607 -9.6945,-34.82835 -4.907,-10.53229 -14.1228,-10.53229 -15.0803,0 -16.1575,22.50079 h -4.3086 q 0,-39.49607 23.4582,-39.49607 13.5244,0 20.1071,16.0378 6.5827,15.91812 13.5244,69.41734 z m 108.315,0 h 24.6551 l -47.9937,100.65513 q 1.7953,16.15749 1.7953,28.24568 0,33.6315 -12.567,33.6315 -9.096,0 -9.096,-14.12284 0,-18.4315 13.4047,-46.19843 -2.6331,-17.23465 -7.4205,-41.53072 -4.6677,-24.29607 -9.6945,-34.82835 -4.9071,-10.53229 -14.1228,-10.53229 -15.0803,0 -16.1575,22.50079 h -4.3087 q 0,-39.49607 23.4583,-39.49607 13.5244,0 20.1071,16.0378 6.5827,15.91812 13.5244,69.41734 z"
       id="text14"
       transform="scale(1.0262984,0.97437549)"
       aria-label="γγ" />
    <path
       d="m 2455.7679,312.98603 c 96.2421,0 180.4539,-102.25717 180.4539,-188.61723 0,-72.181534 -48.1211,-104.405435 -99.6793,-104.405435 -76.9077,0 -174.8684,93.664135 -174.8684,188.617235 0,69.17397 41.2466,96.24205 75.6188,102.68683 -41.6763,36.52042 -45.5431,39.09833 -76.0484,61.01058 l 4.2965,6.44478 c 15.0378,-9.02269 34.3722,-13.31921 50.2693,-13.31921 21.9122,0 66.5961,18.90469 103.9758,18.90469 20.1936,0 72.6112,-11.17095 103.1165,-57.14372 l -6.4448,-4.72617 c -17.1861,17.61573 -31.7943,32.65355 -75.1891,32.65355 -26.2088,0 -75.1891,-18.90469 -97.9607,-18.04538 l -10.7413,0.42965 z m -48.9803,-84.64144 c 0,-55.85476 42.9652,-194.202708 128.0363,-194.202708 40.8169,0 56.2844,30.07564 56.2844,69.173968 0,52.41755 -41.2466,195.49167 -128.4659,195.49167 -55.8548,0 -55.8548,-60.58093 -55.8548,-70.46293 z"
       id="text22"
       style="font-style:italic;font-size:429.652px;font-family:Times;-inkscape-font-specification:'Times, Italic';stroke-width:0.894623"
       transform="scale(0.99820145,1.0018018)"
       aria-label="Q" />
  </g>
  <path
     d="m 2951.3776,54.594963 v -7.928295 q 28.6868,14.157671 47.7482,33.412102 26.9883,27.56026 41.709,64.74775 14.7208,36.9987 14.7208,77.20651 0,58.51836 -28.8754,106.65444 -28.6867,48.32485 -75.3026,69.08944 v -6.98445 q 23.2136,-13.02507 38.1231,-35.2998 15.0984,-22.08596 22.27,-56.25314 7.3605,-34.35596 7.3605,-71.54343 0,-40.20779 -6.2282,-73.43112 -4.7181,-26.05012 -11.8898,-41.71795 -6.983,-15.667813 -18.6842,-30.203022 -11.7012,-14.535209 -30.9514,-27.749035 z"
     id="text24"
     style="font-size:440.43px;font-family:'Times New Roman';-inkscape-font-specification:'Times New Roman, Normal';stroke-width:0.828336"
     aria-label=")" />
</svg>
