<?xml version="1.0" encoding="UTF-8" standalone="no"?>
<svg
   width="400"
   height="400"
   viewBox="0 0 400 400"
   version="1.1"
   id="svg1"
   xmlns="http://www.w3.org/2000/svg"
   xmlns:svg="http://www.w3.org/2000/svg">
  <defs
     id="defs1" />
  <g
     id="g19"
     transform="matrix(1.2734748,0,0,1.2734748,-54.876326,-54.513567)">
    <path
       style="fill:#990000;fill-opacity:1;fill-rule:nonzero;stroke-width:0.242707"
       d="m 172.1197,199.9978 c 32.81764,-4.93516 32.81764,-4.93516 27.8825,27.8825 -3.90845,25.99026 -24.09962,89.15876 -57.06131,112.82627 C 77.017548,388.04161 11.958392,322.98245 59.293421,257.0591 82.960943,224.09742 146.12944,203.90625 172.1197,199.9978 Z"
       id="path9" />
    <path
       style="fill:#970000;fill-opacity:1;fill-rule:nonzero;stroke-width:0.242707"
       d="m 228.16514,199.71732 c -32.81764,4.93516 -32.81764,4.93516 -27.88249,-27.88249 3.90845,-25.99025 24.09963,-89.158754 57.06132,-112.826259 65.92334,-47.335044 130.9825,17.724119 83.64745,83.647459 -23.6675,32.96169 -86.83601,53.15287 -112.82628,57.06129 z"
       id="path14" />
    <path
       style="fill:#050099;fill-opacity:1;fill-rule:nonzero;stroke-width:0.242707"
       d="m 200.28267,227.72864 c -4.93517,-32.81763 -4.93517,-32.81763 27.88249,-27.88249 25.99025,3.90846 89.15875,24.09964 112.82627,57.06132 47.33503,65.92335 -17.72412,130.9825 -83.64747,83.64746 -32.96168,-23.66751 -53.15285,-86.83601 -57.06129,-112.82629 z"
       id="path15" />
    <path
       style="fill:#050099;fill-opacity:1;fill-rule:nonzero;stroke-width:0.242707"
       d="m 200.15382,171.83484 c 4.93516,32.81764 4.93516,32.81764 -27.8825,27.8825 C 146.28108,195.80889 83.112575,175.61772 59.44506,142.65603 12.110024,76.732687 77.169186,11.673524 143.09253,59.008568 c 32.96168,23.667515 53.15285,86.836012 57.06129,112.826272 z"
       id="path16" />
    <path
       d="m 1021.0936,687.1998 q 64.8437,0 117.1875,50.26038 52.3437,49.99997 52.3437,132.552 0,82.0312 -51.5625,134.37492 -51.5625,52.0833 -122.1353,52.0833 -78.3854,0 -125.26037,-54.9479 -46.87498,-54.94786 -46.87498,-130.98948 0,-82.29162 52.60414,-132.81242 52.86455,-50.5208 123.69781,-50.5208 z m -4.9479,19.0104 q -50.52079,0 -81.24993,41.92706 -30.46874,41.66664 -30.46874,121.35409 0,74.47912 28.64582,121.61451 28.64582,46.87494 83.33325,46.87494 53.125,0 83.8541,-41.14578 30.7292,-41.40622 30.7292,-120.05201 0,-79.68745 -28.9062,-124.99992 -28.6459,-45.57289 -85.9375,-45.57289 z m -61.19786,102.6041 h 9.89582 q 0,22.39582 9.11458,32.03123 9.11458,9.63542 33.59376,9.63542 h 21.0937 q 23.1771,0 32.5521,-9.375 9.375,-9.63541 9.375,-32.29165 h 9.8958 v 125.78118 h -9.8958 q 0,-22.13541 -9.1146,-31.77082 -9.1146,-9.63541 -33.3333,-9.63541 h -21.6146 q -23.17706,0 -32.55206,9.63541 -9.11458,9.63541 -9.11458,31.77082 h -9.89582 z"
       id="text18"
       style="font-size:533.333px;font-family:'Times New Roman';-inkscape-font-specification:'Times New Roman, ';white-space:pre;fill:#ffffff;fill-opacity:1"
       transform="matrix(0.67916052,0,0,0.67916052,-491.40169,-391.90153)"
       aria-label="Θ" />
  </g>
</svg>
