<?xml version="1.0" encoding="UTF-8" standalone="no"?>
<svg
   width="2800"
   height="400"
   viewBox="0 0 3111.1112 444.44445"
   version="1.1"
   id="svg1"
   sodipodi:docname="quadrupole_light_with_text_padded.svg"
   inkscape:version="1.4.3 (0d15f75042, 2025-12-25)"
   xmlns:inkscape="http://www.inkscape.org/namespaces/inkscape"
   xmlns:sodipodi="http://sodipodi.sourceforge.net/DTD/sodipodi-0.dtd"
   xmlns="http://www.w3.org/2000/svg"
   xmlns:svg="http://www.w3.org/2000/svg">
  <sodipodi:namedview
     id="namedview1"
     pagecolor="#ffffff"
     bordercolor="#000000"
     borderopacity="0.25"
     inkscape:showpageshadow="2"
     inkscape:pageopacity="0.0"
     inkscape:pagecheckerboard="0"
     inkscape:deskcolor="#d1d1d1"
     inkscape:zoom="0.76821429"
     inkscape:cx="463.41237"
     inkscape:cy="200.4649"
     inkscape:window-width="2400"
     inkscape:window-height="1279"
     inkscape:window-x="0"
     inkscape:window-y="0"
     inkscape:window-maximized="1"
     inkscape:current-layer="svg1" />
  <defs
     id="defs1" />
  <g
     id="g19"
     transform="matrix(1.2734748,0,0,1.2734748,200.67923,-32.291347)">
    <path
       style="fill:#cc0000;fill-opacity:1;fill-rule:nonzero;stroke-width:0.242707"
       d="m 172.1197,199.9978 c 32.81764,-4.93516 32.81764,-4.93516 27.8825,27.8825 -3.90845,25.99026 -24.09962,89.15876 -57.06131,112.82627 C 77.017548,388.04161 11.958392,322.98245 59.293421,257.0591 82.960943,224.09742 146.12944,203.90625 172.1197,199.9978 Z"
       id="path9" />
    <path
       style="fill:#cc0000;fill-opacity:1;fill-rule:nonzero;stroke-width:0.242707"
       d="m 228.16514,199.71732 c -32.81764,4.93516 -32.81764,4.93516 -27.88249,-27.88249 3.90845,-25.99025 24.09963,-89.158754 57.06132,-112.826259 65.92334,-47.335044 130.9825,17.724119 83.64745,83.647459 -23.6675,32.96169 -86.83601,53.15287 -112.82628,57.06129 z"
       id="path14" />
    <path
       style="fill:#0800ff;fill-opacity:1;fill-rule:nonzero;stroke-width:0.242707"
       d="m 200.28267,227.72864 c -4.93517,-32.81763 -4.93517,-32.81763 27.88249,-27.88249 25.99025,3.90846 89.15875,24.09964 112.82627,57.06132 47.33503,65.92335 -17.72412,130.9825 -83.64747,83.64746 -32.96168,-23.66751 -53.15285,-86.83601 -57.06129,-112.82629 z"
       id="path15" />
    <path
       style="fill:#0800ff;fill-opacity:1;fill-rule:nonzero;stroke-width:0.242707"
       d="m 200.15382,171.83484 c 4.93516,32.81764 4.93516,32.81764 -27.8825,27.8825 C 146.28108,195.80889 83.112575,175.61772 59.44506,142.65603 12.110024,76.732687 77.169186,11.673524 143.09253,59.008568 c 32.96168,23.667515 53.15285,86.836012 57.06129,112.826272 z"
       id="path16" />
    <path
       d="m 1021.0936,687.1998 q 64.8437,0 117.1875,50.26038 52.3437,49.99997 52.3437,132.552 0,82.0312 -51.5625,134.37492 -51.5625,52.0833 -122.1353,52.0833 -78.3854,0 -125.26037,-54.9479 -46.87498,-54.94786 -46.87498,-130.98948 0,-82.29162 52.60414,-132.81242 52.86455,-50.5208 123.69781,-50.5208 z m -4.9479,19.0104 q -50.52079,0 -81.24993,41.92706 -30.46874,41.66664 -30.46874,121.35409 0,74.47912 28.64582,121.61451 28.64582,46.87494 83.33325,46.87494 53.125,0 83.8541,-41.14578 30.7292,-41.40622 30.7292,-120.05201 0,-79.68745 -28.9062,-124.99992 -28.6459,-45.57289 -85.9375,-45.57289 z m -61.19786,102.6041 h 9.89582 q 0,22.39582 9.11458,32.03123 9.11458,9.63542 33.59376,9.63542 h 21.0937 q 23.1771,0 32.5521,-9.375 9.375,-9.63541 9.375,-32.29165 h 9.8958 v 125.78118 h -9.8958 q 0,-22.13541 -9.1146,-31.77082 -9.1146,-9.63541 -33.3333,-9.63541 h -21.6146 q -23.17706,0 -32.55206,9.63541 -9.11458,9.63541 -9.11458,31.77082 h -9.89582 z"
       id="text18"
       style="font-size:533.333px;font-family:'Times New Roman';-inkscape-font-specification:'Times New Roman, ';white-space:pre;fill:#000000;fill-opacity:1"
       transform="matrix(0.67916052,0,0,0.67916052,-491.40169,-391.90153)"
       aria-label="Θ" />
  </g>
  <path
     d="m 762.6613,322.06393 q -33.0203,0 -53.79711,-16.16362 -20.77681,-16.16363 -30.7942,-45.32842 -9.64638,-29.1648 -9.64638,-67.46556 0,-38.65215 9.64638,-67.81695 10.01739,-29.164798 30.7942,-45.328424 21.14783,-16.515007 54.16812,-16.515007 33.02027,0 53.79707,16.163624 21.1479,16.163625 30.7942,45.328427 10.0174,28.81341 10.0174,67.46556 0,41.11183 -11.1304,71.33079 -11.1304,30.21893 -34.5044,45.32841 l 40.4406,72.73631 h -37.1014 l -32.6493,-61.49204 q -9.27536,1.7569 -20.03478,1.7569 z m 0.74202,-28.11065 q 33.39136,0 46.74786,-26.70511 13.3565,-27.0565 13.3565,-74.49323 0,-47.7881 -13.3565,-74.49322 -13.3565,-26.70512 -46.37683,-26.70512 -33.76233,0 -47.48986,27.0565 -13.72754,27.0565 -13.72754,74.14184 0,47.43673 13.72754,74.49323 13.72753,26.70511 47.11883,26.70511 z m 207.76826,28.11065 q -35.2463,0 -52.313,-16.51501 -16.6957,-16.86638 -16.6957,-49.8964 V 130.20875 h 33.3914 v 120.52443 q 0,22.4885 9.6463,34.08416 10.0174,11.59564 34.1334,11.59564 30.79422,0 42.66662,-18.27193 11.8725,-18.27193 11.8725,-50.95056 v -96.98174 h 33.3913 v 188.34136 h -26.713 l -4.8232,-25.29959 h -1.8551 q -10.3884,15.81224 -26.342,22.48852 -15.58262,6.32489 -36.35952,6.32489 z m 217.04362,0 q -29.3101,0 -47.4898,-13.70394 -17.8087,-13.70394 -17.8087,-41.4632 0,-30.57033 23.0029,-45.67981 23.3739,-15.10948 67.1536,-16.16363 l 42.6666,-1.05415 v -7.73042 q 0,-25.2996 -13.3565,-34.43554 -13.3564,-9.48736 -35.9883,-9.48736 -15.9537,0 -30.4232,3.86521 -14.4696,3.86522 -27.4551,10.89289 l -11.5014,-23.89406 q 14.0985,-6.67628 31.1652,-11.59564 17.4377,-4.91936 40.0695,-4.91936 37.4724,0 57.5073,16.16361 20.4057,15.81225 20.4057,49.54503 v 126.14655 h -26.7129 l -3.7103,-26.00236 h -1.4839 q -12.2436,14.7581 -28.1972,22.13714 -15.9536,7.37904 -37.8435,7.37904 z m 5.5653,-25.65095 q 16.6956,0 30.7942,-5.62214 14.0985,-5.9735 22.6319,-17.56916 8.5332,-11.94702 8.5332,-29.86756 v -16.8664 l -35.6172,1.05415 q -35.6175,1.05416 -50.8291,10.89288 -14.8406,9.83873 -14.8406,27.40788 0,16.16364 10.7595,23.54268 10.7594,7.02767 28.5681,7.02767 z m 227.432,25.65095 q -36.7304,0 -58.9912,-24.24542 -22.261,-24.59683 -22.261,-74.49323 0,-47.08534 21.1478,-71.68216 21.1478,-24.9482 63.8145,-24.9482 20.777,0 34.1335,7.73042 13.3564,7.73043 20.4057,19.67746 h 2.2261 q -0.7419,-4.91937 -1.4841,-13.00117 -0.742,-8.08182 -0.742,-14.7581 V 51.498922 h 33.0204 V 318.55011 h -27.4552 l -3.7101,-25.29959 h -1.4842 q -8.1622,12.64979 -22.2606,20.73161 -13.7278,8.0818 -36.3596,8.0818 z m 6.3073,-25.65095 q 26.342,0 38.9565,-17.21779 12.9855,-17.56915 12.9855,-47.43672 v -7.02766 q 0,-20.73161 -4.8232,-36.89523 -4.8231,-16.51501 -15.9536,-26.00234 -11.1305,-9.48736 -30.0522,-9.48736 -25.971,0 -40.4406,18.27192 -14.0985,18.27193 -14.0985,55.86992 0,69.92526 53.4261,69.92526 z m 137.6466,22.13713 v -21.08299 l 60.4752,-5.27075 v -135.6339 l -54.5391,-4.56797 v -21.78575 h 81.2523 l 4.4521,34.43555 h 1.4841 q 10.3884,-18.62331 22.6319,-28.11066 12.6143,-9.83872 33.0203,-9.83872 12.6144,0 22.2607,2.10829 10.0175,2.1083 18.1798,5.62213 l -8.9043,27.75928 q -5.9363,-3.16245 -14.0986,-5.27076 -8.1624,-2.45968 -17.4376,-2.45968 -15.9537,0 -28.1972,9.48735 -12.2435,9.48734 -19.2927,25.29959 -7.0493,15.81223 -7.0493,34.78692 v 68.16833 l 57.8783,5.27075 v 21.08299 z m 296.4407,3.51382 q -35.2464,0 -52.3132,-16.51501 -16.6956,-16.86638 -16.6956,-49.8964 V 130.20875 h 33.3913 v 120.52443 q 0,22.4885 9.6464,34.08416 10.0173,11.59564 34.1332,11.59564 30.7944,0 42.6668,-18.27193 11.8725,-18.27193 11.8725,-50.95056 v -96.98174 h 33.3913 v 188.34136 h -26.7131 l -4.8232,-25.29959 h -1.855 q -10.3885,15.81224 -26.342,22.48852 -15.5827,6.32489 -36.3594,6.32489 z m 155.4551,80.81813 V 130.20875 h 27.4552 l 4.0811,25.65095 h 1.484 q 8.5334,-13.70393 22.632,-21.43436 14.4696,-7.73042 36.7304,-7.73042 36.3594,0 58.2492,24.59681 21.89,24.59683 21.89,72.73631 0,48.13948 -21.89,73.0877 -21.8898,24.94819 -58.2492,24.94819 -21.8898,0 -36.3594,-8.43319 -14.4696,-8.43319 -23.003,-19.32607 h -2.2261 q 2.2261,13.70394 2.2261,28.11065 v 80.46674 z m 85.3334,-106.46908 q 27.8262,0 40.4407,-17.92055 12.6144,-18.27192 12.6144,-55.16715 0,-36.19246 -12.6144,-53.41025 -12.2436,-17.56915 -40.8117,-17.56915 -27.0841,0 -39.6986,16.8664 -12.2435,16.515 -12.2435,47.7881 v 7.02766 q 0,33.38141 11.1306,53.05886 11.5014,19.32608 41.1825,19.32608 z m 219.2698,25.65095 q -25.9711,0 -46.7478,-10.54148 -20.4058,-10.89288 -32.6494,-32.67864 -11.8723,-22.13713 -11.8723,-55.16715 0,-32.67864 11.5013,-54.11301 11.8724,-21.43435 32.2785,-31.97586 20.4056,-10.89287 46.3767,-10.89287 25.9709,0 46.7477,10.89287 20.7769,10.54151 32.6494,32.32724 12.2435,21.43437 12.2435,54.81578 0,32.67864 -11.8725,54.46438 -11.8724,21.43438 -32.2784,32.32726 -20.4058,10.54148 -46.3767,10.54148 z m -0.3711,-25.65095 q 28.9392,0 43.0379,-19.32608 14.0984,-19.67745 14.0984,-53.05886 0,-33.3814 -14.4696,-52.35609 -14.0985,-19.32607 -43.0378,-19.32607 -28.939,0 -43.4085,19.32607 -14.0985,18.97469 -14.0985,52.35609 0,33.38141 14.4695,53.05886 14.4696,19.32608 43.4086,19.32608 z m 140.9858,22.13713 v -21.08299 l 72.7188,-5.27075 V 77.852658 l -70.4928,-4.567981 V 51.498922 h 103.8842 V 292.19637 l 64.5565,5.27075 v 21.08299 z m 317.9596,3.51382 q -47.8609,0 -75.316,-24.94819 -27.455,-25.29959 -27.455,-72.03355 0,-30.92171 11.8724,-52.70747 11.8725,-22.13714 33.0204,-33.73278 21.1478,-11.94702 49.3448,-11.94702 38.9567,0 61.2174,23.89404 22.6319,23.89406 22.6319,65.35727 v 14.40671 H 2711.231 q 0.7421,24.59681 9.6463,39.00353 9.2755,14.40671 24.858,20.7316 15.9536,5.97352 36.7306,5.97352 16.3244,0 32.2781,-4.2166 15.9536,-4.2166 31.9073,-11.24426 v 28.11065 q -17.0666,7.02766 -34.1332,10.19012 -17.0668,3.16243 -32.2784,3.16243 z m 41.9246,-117.01058 q -1.113,-24.59682 -14.0985,-38.65214 -12.6145,-14.05533 -36.3595,-14.05533 -24.858,0 -40.4405,14.40671 -15.2116,14.05533 -19.2927,38.30076 z"
     id="text19"
     style="font-size:396.479px;font-family:'Noto Sans Mono';-inkscape-font-specification:'Noto Sans Mono, Normal';fill:#000000;fill-opacity:1;stroke-width:1.3043"
     aria-label="Quadrupole" />
</svg>
